<svg id="Layer_1" data-name="Layer 1" xmlns="http://www.w3.org/2000/svg" viewBox="0 0 22 16"><title>pcloud22x16</title><path d="M19.6,10.8a2.7,2.7,0,0,0-1.1-2.2,2.8,2.8,0,0,1-1.2,1.2,2.4,2.4,0,0,0,1.3-2.2,2.4,2.4,0,0,0-2.4-2.4h-.3a5.9,5.9,0,0,1,.5,2.3v.2A5.7,5.7,0,0,0,5,7.8V7.6a6.9,6.9,0,0,1,.5-2.4A4.3,4.3,0,0,0,1.8,9.5,4.2,4.2,0,0,0,6,13.7H16.8a2.8,2.8,0,0,0,2.8-2.9" style="fill:#1ebcc5"/><path d="M10.7,12a4.1,4.1,0,1,1,4-4,4,4,0,0,1-4,4m0-8.7A4.7,4.7,0,1,0,15.3,8a4.7,4.7,0,0,0-4.6-4.7" style="fill:#fff"/><path d="M11.4,7.9H10.1v-1h1.3a.5.5,0,0,1,0,1M9.5,5.7a.7.7,0,0,0-.7.7V9.9a.7.7,0,0,0,.7.6.6.6,0,0,0,.6-.6V9.1h1.3a1.7,1.7,0,0,0,1.7-1.7,1.8,1.8,0,0,0-1.7-1.7" style="fill:#fff"/></svg>