<?xml version="1.0" encoding="utf-8"?>
<!-- Generator: Adobe Illustrator 18.0.0, SVG Export Plug-In . SVG Version: 6.00 Build 0)  -->
<!DOCTYPE svg PUBLIC "-//W3C//DTD SVG 1.1//EN" "http://www.w3.org/Graphics/SVG/1.1/DTD/svg11.dtd">
<svg version="1.1" id="Layer_1" xmlns="http://www.w3.org/2000/svg" xmlns:xlink="http://www.w3.org/1999/xlink" x="0px" y="0px"
	 viewBox="267 96 73 62" enable-background="new 267 96 73 62" xml:space="preserve">
<g>
	<g>
		<g>
			<path fill="#488ECC" d="M284.4,139.1c0-2.7,1.6-5.4,3.5-5.7l9.7-2.3c1.7-0.4,3,1.3,3,3.9v13.6c0,2.5-1.3,5.1-3,5.6l-9.7,3.4
				c-1.9,0.7-3.5-1-3.5-3.8V139.1z"/>
			<path fill="#27AAE1" d="M267.5,135.1c0-2.5,1.3-4.2,3-3.9l9.7,2.3c1.9,0.5,3.5,3,3.5,5.7v14.9c0,2.7-1.6,4.4-3.5,3.8l-9.7-3.4
				c-1.7-0.6-3-3.1-3-5.6V135.1z"/>
			<path fill="#27AAE1" d="M269.8,129.9c-0.8-0.2-0.7-0.5,0.2-0.6l12.7-2.4c0.8-0.2,1.9-0.2,2.6,0l12.8,2.4c0.8,0.2,0.9,0.5,0.2,0.6
				l-12.7,2.9c-0.8,0.2-2.2,0.2-3,0L269.8,129.9z"/>
		</g>
		<g>
			<path fill="#488ECC" d="M323.7,139.1c0-2.7,1.6-5.4,3.5-5.7l9.7-2.3c1.7-0.4,3,1.3,3,3.9v13.6c0,2.5-1.3,5.1-3,5.6l-9.7,3.4
				c-1.9,0.7-3.5-1-3.5-3.8V139.1z"/>
			<path fill="#27AAE1" d="M306.7,135.1c0-2.5,1.3-4.2,3-3.9l9.7,2.3c1.9,0.5,3.5,3,3.5,5.7v14.9c0,2.7-1.6,4.4-3.5,3.8l-9.7-3.4
				c-1.7-0.6-3-3.1-3-5.6V135.1z"/>
			<path fill="#27AAE1" d="M309.1,129.9c-0.8-0.2-0.7-0.5,0.2-0.6l12.7-2.4c0.8-0.2,1.9-0.2,2.6,0l12.8,2.4c0.8,0.2,0.9,0.5,0.2,0.6
				l-12.7,2.9c-0.8,0.2-2.2,0.2-3,0L309.1,129.9z"/>
		</g>
	</g>
	<g>
		<path fill="#488ECC" d="M304.1,108.5c0-2.7,1.6-5.4,3.5-5.7l9.7-2.3c1.7-0.4,3,1.3,3,3.9V118c0,2.5-1.3,5.1-3,5.6l-9.7,3.4
			c-1.9,0.7-3.5-1-3.5-3.8V108.5z"/>
		<path fill="#27AAE1" d="M287.1,104.3c0-2.5,1.3-4.2,3-3.9l9.7,2.3c1.9,0.5,3.5,3,3.5,5.7v14.9c0,2.7-1.6,4.4-3.5,3.8l-9.7-3.4
			c-1.7-0.6-3-3.1-3-5.6V104.3z"/>
		<path fill="#27AAE1" d="M289.5,99.2c-0.8-0.2-0.7-0.5,0.2-0.6l12.7-2.4c0.8-0.2,1.9-0.2,2.6,0l12.8,2.4c0.8,0.2,0.9,0.5,0.2,0.6
			l-12.7,2.9c-0.8,0.2-2.2,0.2-3,0L289.5,99.2z"/>
	</g>
</g>
<rect x="112.2" y="74.7" fill="none" stroke="#A7A9AC" stroke-miterlimit="10" width="377.2" height="560"/>
</svg>
