<svg id="Layer_1" data-name="Layer 1" xmlns="http://www.w3.org/2000/svg" xmlns:xlink="http://www.w3.org/1999/xlink" viewBox="0 0 16 16"><defs><linearGradient id="linear-gradient" x1="9.8" y1="-25.37" x2="9.8" y2="40.62" gradientUnits="userSpaceOnUse"><stop offset="0.02" stop-color="#000355"/><stop offset="0.02" stop-color="#000458"/><stop offset="0.09" stop-color="#00117f"/><stop offset="0.16" stop-color="#001ca1"/><stop offset="0.23" stop-color="#0025be"/><stop offset="0.32" stop-color="#002dd6"/><stop offset="0.41" stop-color="#0033e9"/><stop offset="0.53" stop-color="#0037f5"/><stop offset="0.68" stop-color="#0039fd"/><stop offset="1" stop-color="#003aff"/></linearGradient><linearGradient id="linear-gradient-2" x1="8.84" y1="0.67" x2="8.84" y2="16.61" xlink:href="#linear-gradient"/><linearGradient id="linear-gradient-3" x1="3.5" y1="11.98" x2="3.5" y2="4.01" gradientUnits="userSpaceOnUse"><stop offset="0.01" stop-color="blue"/><stop offset="0.09" stop-color="#0015ff"/><stop offset="0.19" stop-color="#0026ff"/><stop offset="0.32" stop-color="#0031ff"/><stop offset="0.5" stop-color="#0038ff"/><stop offset="1" stop-color="#003aff"/></linearGradient></defs><title>wd_icon16x16_7</title><polygon points="14.3 11.8 14.3 4.2 14.3 4.2 6.7 0.5 5.3 1 5.3 2.9 6.6 2.3 12.4 5.1 12.4 10.9 13 11.2 12.4 10.9 6.7 13.8 5.3 13.2 5.4 15.2 6.8 15.6 14.3 11.8 14.3 11.8 14.3 11.8 14.3 11.8 14.3 11.8" style="fill:url(#linear-gradient)"/><polygon points="6.8 3.8 6.8 12.2 10.9 10.3 10.9 5.9 6.8 3.8" style="fill:url(#linear-gradient-2)"/><path d="M5.2,4v8L1.7,10.8l.8-.3A2.9,2.9,0,0,1,2,7.6,4,4,0,0,1,3.6,6.3a4,4,0,0,1,.9-1.5C4.6,4.7,5.2,4.2,5.2,4Z" style="fill:url(#linear-gradient-3)"/></svg>